# xmcd CD database file
#
# Track frame offsets:
#	151
#	31791
#	45644
#	71472
#	101202
#	130285
#
# Disc length: 2268 seconds
#
# Revision: 0
# Processed by: cddbd v1.5.2PL0 Copyright (c) Steve Scherf et al.
# Submitted via: CDex 1.51
#
DISCID=4c08da06
DTITLE=KABUTO - 共生
DYEAR=2010
DGENRE=New Age
TTITLE0=セイリング
TTITLE1=Fair Trade
TTITLE2=春の呼吸
TTITLE3=水の記憶
TTITLE4=愛へのヒント（共生Ⅰ）
TTITLE5=宇宙の生命（共生Ⅱ）
EXTD=YEAR: 2010
EXTT0=
EXTT1=
EXTT2=
EXTT3=
EXTT4=
EXTT5=
PLAYORDER=
